<svg width="79" height="79" viewBox="0 0 79 79" fill="none" xmlns="http://www.w3.org/2000/svg">
<circle cx="39.5" cy="39.5" r="39" fill="white" stroke="white"/>
<mask id="mask0" mask-type="alpha" maskUnits="userSpaceOnUse" x="0" y="0" width="79" height="79">
<circle cx="39.5" cy="39.5" r="39" fill="white" stroke="white"/>
</mask>
<g mask="url(#mask0)">
<path fill-rule="evenodd" clip-rule="evenodd" d="M30 8.5C31.1239 8.5 31.8396 9.15972 32.1152 9.45327C32.4371 9.79612 32.6641 10.1781 32.8177 10.4694C33.1347 11.0704 33.4154 11.8244 33.6658 12.5919C34.1768 14.1583 34.7126 16.2617 35.2438 18.4804C35.5453 19.7395 35.8464 21.0388 36.1448 22.3263L36.1451 22.3275L36.1451 22.3276C36.9261 25.6973 37.6884 28.9865 38.3895 31.2648C39.3545 34.4011 40.6938 37.8151 41.8061 40.4722C42.3596 41.7945 42.8516 42.9168 43.2046 43.7071C43.381 44.1021 43.5224 44.4136 43.6192 44.6252L43.6759 44.749L43.7338 44.8296C43.8546 44.9969 44.0401 45.248 44.2864 45.5648C44.7795 46.1993 45.5123 47.0921 46.4529 48.1003C48.3487 50.1321 51.0182 52.5562 54.2051 54.3096C54.5295 54.4881 55.2891 54.7465 56.6149 54.9988C57.8772 55.2391 59.4498 55.4383 61.2463 55.5991C64.8355 55.9203 69.1551 56.0745 73.3486 56.135C77.5336 56.1954 81.5533 56.162 84.5295 56.1134C86.0166 56.0891 87.2411 56.061 88.0928 56.039C88.5185 56.028 88.851 56.0186 89.0764 56.0119L89.3324 56.0041L89.3969 56.002L89.4127 56.0015L89.4164 56.0014L89.4172 56.0014L89.4215 56.1303L89.5 58.5C89.5827 60.9986 89.5825 60.9986 89.5821 60.9987L89.5808 60.9987L89.576 60.9989L89.5582 60.9994L89.4895 61.0016L89.2247 61.0097C88.9932 61.0166 88.6543 61.0262 88.2217 61.0373C87.3566 61.0597 86.1162 61.0881 84.6112 61.1127C81.603 61.1619 77.5289 61.1959 73.2764 61.1345C69.0324 61.0733 64.5708 60.9166 60.8006 60.5792C58.9174 60.4106 57.1658 60.1935 55.68 59.9107C54.2578 59.6399 52.8455 59.2684 51.7949 58.6904C47.9818 56.5924 44.9013 53.7666 42.7971 51.5112C42.7555 51.4667 42.7144 51.4224 42.6735 51.3783L42.571 51.2671C42.8112 51.8209 43.0257 52.3066 43.2046 52.7071C43.381 53.1021 43.5224 53.4136 43.6192 53.6252L43.6759 53.749L43.7338 53.8296C43.8546 53.9969 44.0401 54.248 44.2864 54.5648C44.7795 55.1993 45.5123 56.0921 46.4529 57.1003C48.3487 59.1321 51.0182 61.5562 54.2051 63.3096C54.5295 63.4881 55.2891 63.7465 56.6149 63.9988C57.8772 64.2391 59.4498 64.4383 61.2463 64.5991C64.8355 64.9203 69.1551 65.0745 73.3486 65.135C77.5336 65.1954 81.5533 65.162 84.5295 65.1134C86.0166 65.0891 87.2411 65.061 88.0928 65.039C88.5185 65.028 88.851 65.0186 89.0764 65.0119L89.3324 65.0041L89.3969 65.002L89.4127 65.0015L89.4164 65.0014L89.4172 65.0014C89.4173 65.0014 89.4173 65.0014 89.5 67.5C89.5827 69.9986 89.5825 69.9986 89.5821 69.9987L89.5808 69.9987L89.576 69.9989L89.5582 69.9994L89.4895 70.0016L89.2247 70.0097C88.9932 70.0166 88.6543 70.0262 88.2217 70.0373C87.3566 70.0597 86.1162 70.0881 84.6112 70.1127C81.603 70.1619 77.5289 70.1959 73.2764 70.1345C69.0324 70.0733 64.5708 69.9166 60.8006 69.5792C58.9174 69.4106 57.1658 69.1935 55.68 68.9107C54.2578 68.6399 52.8455 68.2684 51.7949 67.6904C48.3323 65.7853 45.4738 63.2798 43.4018 61.1465C43.4886 61.3389 43.5618 61.4996 43.6192 61.6252L43.6759 61.749L43.7338 61.8296C43.8546 61.9969 44.0401 62.248 44.2864 62.5648C44.7795 63.1993 45.5123 64.0921 46.4529 65.1003C48.3487 67.1321 51.0182 69.5562 54.2051 71.3096C54.5295 71.4881 55.2891 71.7465 56.6149 71.9988C57.8772 72.2391 59.4498 72.4383 61.2463 72.5991C64.8355 72.9203 69.1551 73.0745 73.3486 73.135C77.5336 73.1954 81.5533 73.162 84.5295 73.1134C86.0166 73.0891 87.2411 73.061 88.0928 73.039C88.5185 73.028 88.851 73.0186 89.0764 73.0119L89.3324 73.0041L89.3969 73.002L89.4127 73.0015L89.4164 73.0014L89.4172 73.0014C89.4173 73.0014 89.4173 73.0014 89.5 75.5C89.5827 77.9986 89.5825 77.9986 89.5821 77.9987L89.5808 77.9987L89.576 77.9989L89.5582 77.9994L89.4895 78.0016L89.2247 78.0097C88.9932 78.0166 88.6543 78.0262 88.2217 78.0373C87.3566 78.0597 86.1162 78.0881 84.6112 78.1127C81.603 78.1619 77.5289 78.1959 73.2764 78.1345C69.0324 78.0733 64.5708 77.9166 60.8006 77.5792C58.9174 77.4106 57.1658 77.1935 55.68 76.9107C54.2578 76.6399 52.8455 76.2684 51.7949 75.6904C47.9818 73.5924 44.9013 70.7666 42.7971 68.5112C41.8843 67.533 41.142 66.6477 40.5899 65.9529C40.6628 66.1289 40.7349 66.3021 40.8061 66.4722C41.3596 67.7945 41.8516 68.9168 42.2046 69.7071C42.381 70.1021 42.5224 70.4136 42.6192 70.6252L42.6759 70.749L42.7338 70.8296C42.8546 70.9969 43.0401 71.248 43.2864 71.5648C43.7795 72.1993 44.5123 73.0921 45.4529 74.1003C47.3487 76.1321 50.0182 78.5562 53.2051 80.3096C53.5295 80.4881 54.2891 80.7465 55.6149 80.9988C56.8772 81.2391 58.4498 81.4383 60.2463 81.5991C63.8355 81.9203 68.1551 82.0745 72.3486 82.135C76.5336 82.1954 80.5533 82.162 83.5295 82.1134C85.0166 82.0891 86.2411 82.061 87.0928 82.039C87.5185 82.028 87.851 82.0186 88.0764 82.0119L88.3324 82.0041L88.3969 82.002L88.4127 82.0015L88.4164 82.0014L88.4172 82.0014C88.4173 82.0014 88.4173 82.0014 88.5 84.5C88.5827 86.9986 88.5825 86.9986 88.5821 86.9987L88.5808 86.9987L88.576 86.9989L88.5582 86.9994L88.4895 87.0016L88.2247 87.0097C87.9932 87.0166 87.6543 87.0262 87.2217 87.0373C86.3566 87.0597 85.1162 87.0881 83.6112 87.1127C80.603 87.1619 76.5289 87.1959 72.2764 87.1345C68.0324 87.0733 63.5708 86.9166 59.8006 86.5792C57.9174 86.4106 56.1658 86.1935 54.68 85.9107C53.2578 85.6399 51.8455 85.2684 50.7949 84.6904C46.9818 82.5924 43.9013 79.7666 41.7971 77.5112C41.7205 77.4292 41.6451 77.3478 41.571 77.2671C41.8112 77.8209 42.0257 78.3066 42.2046 78.7071C42.381 79.1021 42.5224 79.4136 42.6192 79.6252L42.6759 79.749L42.7338 79.8296C42.8546 79.9969 43.0401 80.248 43.2864 80.5648C43.7795 81.1993 44.5123 82.0921 45.4529 83.1003C47.3487 85.1321 50.0182 87.5562 53.2051 89.3096C53.5295 89.4881 54.2891 89.7465 55.6149 89.9988C56.8772 90.2391 58.4498 90.4383 60.2463 90.5991C63.8355 90.9203 68.1551 91.0745 72.3486 91.135C76.5336 91.1954 80.5533 91.162 83.5295 91.1134C85.0166 91.0891 86.2411 91.061 87.0928 91.039C87.5185 91.028 87.851 91.0186 88.0764 91.0119L88.3324 91.0041L88.3969 91.002L88.4127 91.0015L88.4164 91.0014L88.4172 91.0014C88.4173 91.0014 88.4173 91.0014 88.5 93.5C88.5827 95.9986 88.5825 95.9986 88.5821 95.9987L88.5808 95.9987L88.576 95.9989L88.5582 95.9994L88.4895 96.0016L88.2247 96.0097C87.9932 96.0166 87.6543 96.0262 87.2217 96.0373C86.3566 96.0597 85.1162 96.0881 83.6112 96.1127C80.603 96.1619 76.5289 96.1959 72.2764 96.1345C68.0324 96.0733 63.5708 95.9166 59.8006 95.5792C57.9174 95.4106 56.1658 95.1935 54.68 94.9107C53.2578 94.6399 51.8455 94.2684 50.7949 93.6904C46.9818 91.5924 43.9013 88.7666 41.7971 86.5112C40.7377 85.3758 39.908 84.3657 39.3386 83.6332C39.0536 83.2666 38.8329 82.9682 38.6803 82.7568C38.6039 82.6511 38.5446 82.5671 38.5027 82.5071C38.4817 82.4771 38.4651 82.4531 38.4529 82.4354L38.4379 82.4135L38.433 82.4062L38.4311 82.4034L38.4303 82.4023C38.43 82.4018 38.4296 82.4013 40.5 81C38.2345 82.0572 38.2345 82.0571 38.2344 82.0569L38.2342 82.0564L38.2334 82.0548L38.2311 82.0497L38.2225 82.0314L38.1909 81.9631C38.1634 81.9037 38.1235 81.8169 38.0722 81.7049C37.9698 81.4809 37.8222 81.1557 37.6392 80.746C37.2734 79.927 36.7654 78.768 36.1939 77.4028C35.0562 74.6849 33.6455 71.0989 32.6106 67.7352C31.8533 65.2741 31.0243 61.697 30.2277 58.2592L30.2274 58.2579L30.2269 58.256C29.9392 57.0143 29.6556 55.7908 29.3812 54.6446C29.2205 53.9735 29.0631 53.329 28.9094 52.7188C28.6871 53.5143 28.4606 54.3641 28.234 55.2467C27.0611 59.8147 25.9459 65.0182 25.4515 67.4903C24.9143 70.1759 23.7366 73.8202 22.7362 76.6963C22.2287 78.1554 21.7534 79.4546 21.405 80.3891C21.2306 80.8567 21.0877 81.2338 20.988 81.495C20.9381 81.6256 20.8991 81.7273 20.8723 81.7969L20.8414 81.8767L20.8332 81.8979L20.831 81.9036L20.8303 81.9053L20.8301 81.9058C20.8301 81.906 20.83 81.9061 18.5 81C20.8127 81.9494 20.8125 81.9498 20.8124 81.9503L20.8119 81.9513L20.8107 81.9542L20.8073 81.9626L20.7959 81.9899C20.7864 82.0128 20.7729 82.045 20.7557 82.0857C20.7212 82.1672 20.6714 82.2835 20.6074 82.4299C20.4793 82.7227 20.2934 83.1373 20.0569 83.6378C19.5856 84.6351 18.9049 85.9912 18.0716 87.4102C17.2442 88.8191 16.2319 90.3497 15.0873 91.6637C13.9799 92.9349 12.5554 94.2309 10.8544 94.8495C7.70517 95.9946 3.35972 96.3726 0.031775 96.4982C-1.67843 96.5628 -3.20783 96.5627 -4.30993 96.5466C-4.86181 96.5386 -5.30869 96.5264 -5.62001 96.5162C-5.77572 96.5111 -5.89767 96.5065 -5.98206 96.5031L-6.08003 96.4989L-6.10704 96.4977L-6.11489 96.4974L-6.11738 96.4972L-6.11826 96.4972C-6.11861 96.4972 -6.11891 96.4972 -6 94C-5.88109 91.5028 -5.88131 91.5028 -5.88149 91.5028L-5.88128 91.5028L-5.87769 91.503L-5.85938 91.5038L-5.77941 91.5072C-5.70731 91.5101 -5.5983 91.5143 -5.45616 91.5189C-5.17178 91.5282 -4.75537 91.5396 -4.23694 91.5471C-3.19842 91.5623 -1.75906 91.5622 -0.15677 91.5018C3.14028 91.3774 6.79484 91.0054 9.14565 90.1505C9.6657 89.9614 10.4142 89.416 11.3171 88.3796C12.1827 87.3859 13.0177 86.1424 13.7601 84.8783C14.1451 84.2225 14.496 83.5772 14.8044 82.981C13.7411 84.1458 12.4139 85.2824 10.8544 85.8495C7.70517 86.9946 3.35972 87.3726 0.031775 87.4982C-1.67843 87.5628 -3.20783 87.5627 -4.30993 87.5466C-4.86181 87.5386 -5.30869 87.5264 -5.62001 87.5162C-5.77572 87.5111 -5.89767 87.5065 -5.98206 87.5031L-6.08003 87.4989L-6.10704 87.4977L-6.11489 87.4974L-6.11738 87.4972L-6.11826 87.4972C-6.11861 87.4972 -6.11891 87.4972 -6 85C-5.88109 82.5028 -5.88131 82.5028 -5.88149 82.5028L-5.88128 82.5028L-5.87769 82.503L-5.85938 82.5038L-5.77941 82.5072C-5.70731 82.5101 -5.5983 82.5143 -5.45616 82.5189C-5.17178 82.5282 -4.75537 82.5396 -4.23694 82.5471C-3.19842 82.5623 -1.75906 82.5622 -0.15677 82.5018C3.14028 82.3774 6.79484 82.0054 9.14565 81.1505C9.6657 80.9614 10.4142 80.416 11.3171 79.3796C12.1827 78.3859 13.0177 77.1424 13.7601 75.8783L13.8116 75.7902C13.2079 76.2255 12.5546 76.5949 11.8544 76.8495C8.70517 77.9946 4.35972 78.3726 1.03177 78.4982C-0.678432 78.5628 -2.20783 78.5627 -3.30993 78.5466C-3.86181 78.5386 -4.30869 78.5264 -4.62001 78.5162C-4.77572 78.5111 -4.89767 78.5065 -4.98206 78.5031L-5.08003 78.4989L-5.10704 78.4977L-5.11489 78.4974L-5.11738 78.4972L-5.11826 78.4972C-5.11861 78.4972 -5.11891 78.4972 -5 76C-4.88109 73.5028 -4.88131 73.5028 -4.88149 73.5028L-4.88128 73.5028L-4.87769 73.503L-4.85938 73.5038L-4.77941 73.5072C-4.70731 73.5101 -4.5983 73.5143 -4.45616 73.5189C-4.17178 73.5282 -3.75537 73.5396 -3.23694 73.5471C-2.19842 73.5623 -0.759063 73.5622 0.84323 73.5018C4.14028 73.3774 7.79484 73.0054 10.1456 72.1505C10.6657 71.9614 11.4142 71.416 12.3171 70.3796C13.1135 69.4653 13.8841 68.3396 14.5804 67.1808C13.7746 67.8776 12.8631 68.4827 11.8544 68.8495C8.70517 69.9946 4.35972 70.3726 1.03177 70.4982C-0.678432 70.5628 -2.20783 70.5627 -3.30993 70.5466C-3.86181 70.5386 -4.30869 70.5264 -4.62001 70.5162C-4.77572 70.5111 -4.89767 70.5065 -4.98206 70.5031L-5.08003 70.4989L-5.10704 70.4977L-5.11489 70.4974L-5.11738 70.4972L-5.11826 70.4972C-5.11861 70.4972 -5.11891 70.4972 -5 68C-4.88109 65.5028 -4.88131 65.5028 -4.88149 65.5028L-4.88128 65.5028L-4.87769 65.503L-4.85938 65.5038L-4.77941 65.5072C-4.70731 65.5101 -4.5983 65.5143 -4.45616 65.5189C-4.17178 65.5282 -3.75537 65.5396 -3.23694 65.5471C-2.19842 65.5623 -0.759063 65.5622 0.84323 65.5018C4.14028 65.3774 7.79484 65.0054 10.1456 64.1505C10.6657 63.9614 11.4142 63.416 12.3171 62.3796C13.1827 61.3859 14.0177 60.1424 14.7601 58.8783C15.1451 58.2225 15.496 57.5772 15.8044 56.981C14.7411 58.1458 13.4139 59.2824 11.8544 59.8495C8.70517 60.9946 4.35972 61.3726 1.03177 61.4982C-0.678432 61.5628 -2.20783 61.5627 -3.30993 61.5466C-3.86181 61.5386 -4.30869 61.5264 -4.62001 61.5162C-4.77572 61.5111 -4.89767 61.5065 -4.98206 61.5031L-5.08003 61.4989L-5.10704 61.4977L-5.11489 61.4974L-5.11738 61.4972L-5.11826 61.4972C-5.11861 61.4972 -5.11891 61.4972 -5 59C-4.88109 56.5028 -4.88131 56.5028 -4.88149 56.5028L-4.88128 56.5028L-4.87769 56.503L-4.85938 56.5038L-4.77941 56.5072C-4.70731 56.5101 -4.5983 56.5143 -4.45616 56.5189C-4.17178 56.5282 -3.75537 56.5396 -3.23694 56.5471C-2.19842 56.5623 -0.759063 56.5622 0.84323 56.5018C4.14028 56.3774 7.79484 56.0054 10.1456 55.1505C10.6657 54.9614 11.4142 54.416 12.3171 53.3796C13.1827 52.3859 14.0177 51.1424 14.7601 49.8783C15.4965 48.6242 16.1078 47.4082 16.5362 46.5016C16.7495 46.0502 16.9154 45.68 17.0266 45.4258C17.0821 45.2989 17.1239 45.2011 17.151 45.1371L17.1796 45.069L17.2068 44.9986C17.2318 44.9338 17.2689 44.8373 17.3167 44.712C17.4123 44.4615 17.5507 44.0965 17.7201 43.6422C18.0591 42.7329 18.5213 41.4696 19.0138 40.0537C20.0134 37.1798 21.0857 33.8241 21.5486 31.5097C22.0541 28.9818 23.1889 23.6853 24.391 19.0033C24.9896 16.6722 25.6203 14.4318 26.2118 12.7491C26.5022 11.9227 26.8171 11.1319 27.1521 10.5106C27.3141 10.2102 27.5427 9.83147 27.8515 9.49384C28.0804 9.24355 28.8123 8.5 30 8.5ZM18.5 81L20.83 81.9061L20.8216 81.9278L20.8127 81.9494L18.5 81ZM40.5 81L38.2345 82.0572L38.3184 82.237L38.4296 82.4013L40.5 81ZM41.4565 63.0295C40.625 63.5922 40.1347 63.9242 39.8456 64.1201L39.8455 64.1198L41.4565 63.0295ZM39.7291 63.8263L41.5 63L39.7292 63.8264L39.7291 63.8263ZM40.6344 46.5858L41.5 46L40.6344 46.5859L40.6344 46.5858Z" fill="#F26419"/>
<path fill-rule="evenodd" clip-rule="evenodd" d="M48.4658 36.9687C47.9592 36.7389 47.2718 36.5 46.5 36.5C45.6399 36.5 44.8993 36.8117 44.3923 37.0816C43.8496 37.3704 43.33 37.7449 42.8583 38.1302C41.9132 38.902 40.9357 39.9031 40.0429 40.9012C38.2479 42.9079 36.5643 45.1636 35.8018 46.258C35.3091 46.965 33.9638 48.2047 32.4786 49.4303C31.7857 50.0022 31.1333 50.514 30.6533 50.8835C30.4139 51.0678 30.2188 51.2156 30.0846 51.3165L29.9781 51.3964C29.9408 51.4184 29.8925 51.4466 29.8339 51.4806C29.6669 51.5772 29.4164 51.7196 29.0951 51.895C28.4515 52.2463 27.5299 52.7266 26.4313 53.2347C24.2015 54.2661 21.3805 55.3475 18.7277 55.7665C15.2311 56.3186 9.86862 56.511 5.26066 56.5561C2.98196 56.5784 0.930415 56.5645 -0.551469 56.5451C-1.29202 56.5354 -1.88934 56.5243 -2.30047 56.5156C-2.50601 56.5113 -2.66495 56.5076 -2.77192 56.505L-2.89269 56.502L-2.92256 56.5012L-2.92965 56.501L-2.9312 56.5009L-2.93148 56.5009L-3 59L-3.0417 60.5209L-3.30047 60.5156C-3.50601 60.5113 -3.66495 60.5076 -3.77192 60.505L-3.89269 60.502L-3.92256 60.5012L-3.92965 60.501L-3.9312 60.5009L-3.93148 60.5009L-4 63C-4.06857 65.4991 -4.06841 65.4991 -4.06818 65.4991L-4.06745 65.4991L-4.06498 65.4992L-4.05604 65.4994L-4.0224 65.5003L-3.93152 65.5026L-4 68C-4.06857 70.4991 -4.06841 70.4991 -4.06818 70.4991L-4.06745 70.4991L-4.06498 70.4992L-4.05604 70.4994L-4.0224 70.5003L-3.95892 70.5019L-4 72C-4.06857 74.4991 -4.06841 74.4991 -4.06818 74.4991L-4.06745 74.4991L-4.06498 74.4992L-4.05604 74.4994L-4.0224 74.5003L-3.95892 74.5019L-4 76C-4.06857 78.4991 -4.06841 78.4991 -4.06818 78.4991L-4.06745 78.4991L-4.06498 78.4992L-4.05604 78.4994L-4.0224 78.5003L-3.93152 78.5026L-4 81C-4.06857 83.4991 -4.06841 83.4991 -4.06818 83.4991L-4.06745 83.4991L-4.06498 83.4992L-4.05604 83.4994L-4.0224 83.5003L-3.93152 83.5026L-4 86C-4.06857 88.4991 -4.06841 88.4991 -4.06818 88.4991L-4.06745 88.4991L-4.06498 88.4992L-4.05604 88.4994L-4.0224 88.5003L-3.93152 88.5026L-4 91C-4.06857 93.4991 -4.06841 93.4991 -4.06818 93.4991L-4.06745 93.4991L-4.06498 93.4992L-4.05604 93.4994L-4.0224 93.5003L-3.93152 93.5026L-4 96C-4.06857 98.4991 -4.06841 98.4991 -4.06818 98.4991L-4.06745 98.4991L-4.06498 98.4992L-4.05604 98.4994L-4.04112 98.4998C-4.06848 99.4991 -4.06835 99.4991 -4.06818 99.4991L-4.06745 99.4991L-4.06498 99.4992L-4.05604 99.4994L-4.0224 99.5003L-3.89382 99.5035C-3.78153 99.5062 -3.61698 99.5101 -3.40554 99.5145C-2.98272 99.5234 -2.37217 99.5347 -1.61706 99.5447C-0.107595 99.5645 1.9834 99.5786 4.30954 99.5558C8.91125 99.5109 14.6076 99.3212 18.5076 98.7052C21.8233 98.1816 25.1273 96.8843 27.5304 95.7728C28.7482 95.2094 29.77 94.6771 30.4907 94.2837C30.8516 94.0867 31.1385 93.9238 31.3383 93.8081C31.4383 93.7503 31.5166 93.7042 31.5716 93.6716L31.6365 93.6328L31.6555 93.6214L31.6615 93.6177L31.6637 93.6164L31.6646 93.6159C31.6649 93.6157 31.6651 93.6156 31.2173 92.8778C31.2173 92.8778 31.2173 92.8778 31.2173 92.8778L31.6653 93.6154L31.7616 93.5569L31.8523 93.49L31.3458 92.8038C31.3458 92.8038 31.3458 92.8038 31.3458 92.8038C31.8524 93.49 31.8525 93.4899 31.8526 93.4898L31.853 93.4895L31.8542 93.4886L31.858 93.4858L31.871 93.4762L31.9178 93.4414C31.9581 93.4114 32.0161 93.368 32.0898 93.3126C32.2371 93.2018 32.4473 93.0426 32.7033 92.8456C33.2141 92.4523 33.9129 91.9042 34.6611 91.2867C36.0583 90.1337 37.9556 88.4777 38.9041 87.1164C39.5828 86.1424 41.1418 84.0545 42.7696 82.2347C43.5882 81.3195 44.3672 80.5367 45.0209 80.0029C45.2401 79.8239 45.4202 79.6936 45.5611 79.6026C45.7093 79.6826 45.8982 79.7985 46.1276 79.9589C46.7734 80.4105 47.5439 81.076 48.3514 81.8607C49.975 83.4387 51.4854 85.2402 52.0959 86.1164C52.6116 86.8565 53.4206 87.6875 54.1993 88.4301C55.0161 89.2091 55.946 90.0271 56.8098 90.7624C57.677 91.5004 58.4955 92.17 59.0961 92.6544C59.3969 92.8969 59.6443 93.094 59.8172 93.231C59.9037 93.2996 59.9717 93.3532 60.0185 93.39L60.0726 93.4325L60.0871 93.4439L60.0912 93.447L60.0924 93.448L60.0928 93.4483C60.0929 93.4484 60.0929 93.4484 60.6226 92.7707L60.093 93.4485L60.2715 93.588L60.4722 93.6931L60.8856 92.9039C60.8857 92.904 60.8857 92.904 60.8857 92.904C60.4724 93.6932 60.4726 93.6933 60.4728 93.6934L60.4736 93.6938L60.4756 93.6949L60.4816 93.698L60.5016 93.7084L60.5725 93.745C60.5974 93.7579 60.6269 93.773 60.6608 93.7902C60.7092 93.8149 60.7665 93.844 60.8324 93.8772C61.056 93.9898 61.3781 94.1496 61.7817 94.3433C62.5879 94.7301 63.7248 95.255 65.056 95.8108C67.6801 96.9063 71.211 98.187 74.4924 98.7052C78.4446 99.3294 83.5536 99.3191 87.5566 99.1722C89.5827 99.0979 91.3719 98.9865 92.6553 98.8936C93.2975 98.8471 93.8143 98.8052 94.1724 98.7748C94.3514 98.7595 94.4908 98.7471 94.5865 98.7385L94.6965 98.7284L94.726 98.7256L94.7342 98.7249L94.7366 98.7246L94.7374 98.7246C94.7376 98.7245 94.7378 98.7245 94.6431 97.7333L94.6965 97.7284L94.726 97.7256L94.7342 97.7249L94.7366 97.7246L94.7374 97.7246C94.7376 97.7245 94.7379 97.7245 94.5 95.2358C94.3096 93.2434 94.2717 92.8461 94.2642 92.7669C94.3996 92.7552 94.5079 92.7456 94.5865 92.7385L94.6965 92.7284L94.726 92.7256L94.7342 92.7249L94.7366 92.7246L94.7374 92.7246C94.7376 92.7245 94.7379 92.7245 94.5 90.2358C94.3096 88.2434 94.2717 87.8461 94.2642 87.7669C94.335 87.7608 94.3984 87.7553 94.454 87.7503C94.5047 87.7458 94.549 87.7419 94.5865 87.7385L94.6965 87.7284L94.726 87.7256L94.7342 87.7249L94.7366 87.7246L94.7374 87.7246C94.7376 87.7245 94.7379 87.7245 94.5 85.2358C94.3096 83.2434 94.2717 82.8461 94.2642 82.7669L94.3334 82.7609C94.437 82.7519 94.5217 82.7443 94.5865 82.7385L94.6965 82.7284L94.726 82.7256L94.7342 82.7249L94.7366 82.7246L94.7374 82.7246C94.7376 82.7245 94.7379 82.7245 94.5 80.2358C94.3096 78.2434 94.2717 77.8461 94.2642 77.7669C94.3996 77.7552 94.5079 77.7456 94.5865 77.7385L94.6965 77.7284L94.726 77.7256L94.7342 77.7249L94.7366 77.7246L94.7374 77.7246C94.7376 77.7245 94.7379 77.7245 94.5 75.2358L94.3588 73.7587C94.4509 73.7507 94.5271 73.7439 94.5865 73.7385L94.6965 73.7284L94.726 73.7256L94.7342 73.7249L94.7366 73.7246L94.7374 73.7246C94.7376 73.7245 94.7379 73.7245 94.5 71.2358L94.3588 69.7587C94.4509 69.7507 94.5271 69.7439 94.5865 69.7385L94.6965 69.7284L94.726 69.7256L94.7342 69.7249L94.7366 69.7246L94.7374 69.7246C94.7376 69.7245 94.7379 69.7245 94.5 67.2358C94.3096 65.2434 94.2717 64.8461 94.2642 64.7669C94.3996 64.7552 94.5079 64.7456 94.5865 64.7385L94.6965 64.7284L94.726 64.7256L94.7342 64.7249L94.7366 64.7246L94.7374 64.7246C94.7376 64.7245 94.7379 64.7245 94.5 62.2358L94.3666 60.8402C94.6872 60.8153 94.9582 60.793 95.1724 60.7748C95.3514 60.7595 95.4908 60.7471 95.5865 60.7385L95.6965 60.7284L95.726 60.7256L95.7342 60.7249L95.7366 60.7246L95.7374 60.7246C95.7376 60.7245 95.7379 60.7245 95.5 58.2358C95.2621 55.7472 95.2623 55.7472 95.2623 55.7472L95.2614 55.7473L95.2562 55.7477L95.2329 55.7499L95.1355 55.7589C95.0484 55.7668 94.9181 55.7783 94.7485 55.7928C94.4093 55.8216 93.9136 55.8618 93.2945 55.9066C92.0553 55.9963 90.3269 56.1039 88.3732 56.1756C84.4165 56.3207 79.7167 56.3104 76.2723 55.7665C73.5853 55.3421 70.4912 54.2442 67.9824 53.1967C66.7471 52.681 65.6906 52.1933 64.945 51.8355C64.5727 51.6568 64.2793 51.5112 64.0814 51.4115L63.9889 51.3648L63.9225 51.3122C63.7592 51.1829 63.5231 50.9948 63.2348 50.7622C62.6571 50.2964 61.8745 49.656 61.0505 48.9547C60.2232 48.2506 59.3718 47.5001 58.65 46.8117C57.89 46.087 57.4031 45.552 57.1982 45.258C56.3676 44.0658 54.6353 42.0237 52.8361 40.2751C51.9322 39.3967 50.9463 38.5281 49.9932 37.8616C49.5166 37.5282 48.9992 37.2107 48.4658 36.9687ZM31.1226 86.7218L31.1226 86.7219L30.3677 85.4786L31.1226 86.7218ZM31.2242 86.6391L30.3677 85.4786L31.2242 86.6391L31.2242 86.6391ZM30.3677 80.4786L31.1226 81.7219L31.1226 81.7218L30.3677 80.4786ZM31.2242 81.6391L30.3677 80.4786L31.2242 81.6391L31.2242 81.6391ZM31.1226 76.7218L31.1226 76.7219L30.3677 75.4786L31.1226 76.7218ZM31.2242 76.6391L30.3677 75.4786L31.2242 76.6391L31.2242 76.6391ZM30.3677 70.4786L31.1226 71.7219L31.1226 71.7218L30.3677 70.4786ZM31.2242 71.6391L30.3677 70.4786L31.2242 71.6391L31.2242 71.6391ZM31.1226 58.7218L31.1226 58.7219L30.3677 57.4786L31.1226 58.7218ZM31.2242 58.6391L30.3677 57.4786L31.2242 58.6391L31.2242 58.6391Z" fill="#F6AE2D"/>
</g>
</svg>
